<?xml version="1.0" encoding="UTF-8" standalone="no"?>
<!-- Created with Inkscape (http://www.inkscape.org/) -->

<svg
   xmlns:dc="http://purl.org/dc/elements/1.1/"
   xmlns:cc="http://creativecommons.org/ns#"
   xmlns:rdf="http://www.w3.org/1999/02/22-rdf-syntax-ns#"
   xmlns:svg="http://www.w3.org/2000/svg"
   xmlns="http://www.w3.org/2000/svg"
   xmlns:sodipodi="http://sodipodi.sourceforge.net/DTD/sodipodi-0.dtd"
   xmlns:inkscape="http://www.inkscape.org/namespaces/inkscape"
   width="210mm"
   height="210mm"
   viewBox="0 0 210 210"
   version="1.1"
   id="svg8"
   inkscape:version="0.92.3 (2405546, 2018-03-11)"
   sodipodi:docname="RASSI LOGO.svg">
  <title
     id="title10">Rassi</title>
  <defs
     id="defs2" />
  <sodipodi:namedview
     id="base"
     pagecolor="#ffffff"
     bordercolor="#666666"
     borderopacity="1.0"
     inkscape:pageopacity="0.0"
     inkscape:pageshadow="2"
     inkscape:zoom="0.35"
     inkscape:cx="350"
     inkscape:cy="560"
     inkscape:document-units="mm"
     inkscape:current-layer="layer1"
     showgrid="false"
     inkscape:window-width="1366"
     inkscape:window-height="705"
     inkscape:window-x="-8"
     inkscape:window-y="-8"
     inkscape:window-maximized="1" />
  <metadata
     id="metadata5">
    <rdf:RDF>
      <cc:Work
         rdf:about="">
        <dc:format>image/svg+xml</dc:format>
        <dc:type
           rdf:resource="http://purl.org/dc/dcmitype/StillImage" />
        <dc:title>Rassi</dc:title>
        <cc:license
           rdf:resource="http://creativecommons.org/licenses/by-sa/4.0/" />
      </cc:Work>
      <cc:License
         rdf:about="http://creativecommons.org/licenses/by-sa/4.0/">
        <cc:permits
           rdf:resource="http://creativecommons.org/ns#Reproduction" />
        <cc:permits
           rdf:resource="http://creativecommons.org/ns#Distribution" />
        <cc:requires
           rdf:resource="http://creativecommons.org/ns#Notice" />
        <cc:requires
           rdf:resource="http://creativecommons.org/ns#Attribution" />
        <cc:permits
           rdf:resource="http://creativecommons.org/ns#DerivativeWorks" />
        <cc:requires
           rdf:resource="http://creativecommons.org/ns#ShareAlike" />
      </cc:License>
    </rdf:RDF>
  </metadata>
  <g
     inkscape:label="Ebene 1"
     inkscape:groupmode="layer"
     id="layer1"
     transform="translate(0,-87)">
    <path
       style="fill:#784421;stroke:#000000;stroke-width:1.07947671px;stroke-linecap:butt;stroke-linejoin:miter;stroke-opacity:1"
       d="M 292.01758 480.35352 C 256.8267 541.3234 131.01172 665.71875 131.01172 665.71875 C -20.262205 775.76223 273.21041 813.49267 291.36328 760.04297 C 306.58063 715.23671 335.02108 654.47365 397.13867 558.36133 C 392.83727 555.141 392.89532 555.14839 388.57227 551.91602 C 353.92385 526.00917 320.62162 501.33399 292.01758 480.35352 z "
       id="path29"
       transform="matrix(0.26458333,0,0,0.26458333,0,87)" />
    <path
       style="fill:#ff0000;stroke:#000000;stroke-width:1.07947671px;stroke-linecap:butt;stroke-linejoin:miter;stroke-opacity:1"
       d="M 292.01758 480.35352 C 320.62162 501.33399 353.92385 526.00917 388.57227 551.91602 C 392.89532 555.14839 392.83727 555.141 397.13867 558.36133 C 409.12159 539.8206 421.90829 520.43641 436.58594 499.08203 C 436.58594 499.08203 459.42907 497.87751 491.43555 489.8457 L 270.3125 318.25 C 278.31953 386.26707 295.30116 441.2404 300.43945 451.91992 C 303.0628 457.37232 299.40062 467.56205 292.01758 480.35352 z "
       id="path19"
       transform="matrix(0.26458333,0,0,0.26458333,0,87)" />
    <path
       style="fill:#00ff00;stroke:#000000;stroke-width:1.07947671px;stroke-linecap:butt;stroke-linejoin:miter;stroke-opacity:1"
       d="M 620.29688 423.80273 L 271.57617 179.46094 C 263.79156 225.63987 265.17494 274.60815 270.3125 318.25 L 491.43555 489.8457 C 529.08326 480.39827 579.37216 461.40836 620.29688 423.80273 z "
       id="path17"
       transform="matrix(0.26458333,0,0,0.26458333,0,87)" />
    <path
       style="fill:#ffff00;stroke:#000000;stroke-width:1.07947671px;stroke-linecap:butt;stroke-linejoin:miter;stroke-opacity:1"
       d="M 679.31836 328.47266 L 304.57812 87.832031 C 287.56832 114.9405 277.14521 146.425 271.57617 179.46094 L 620.29688 423.80273 C 624.71507 419.74286 629.072 415.55391 633.24219 411.04688 C 649.68597 393.27483 666.4062 363.74733 679.31836 328.47266 z "
       id="path24"
       transform="matrix(0.26458333,0,0,0.26458333,0,87)" />
    <path
       style="fill:#0000ff;stroke:#000000;stroke-width:1.07947671px;stroke-linecap:butt;stroke-linejoin:miter;stroke-opacity:1"
       d="M 702.54102 209.6582 C 705.01301 104.11111 654.14037 0.54682012 478.94336 2.3144531 C 443.887 2.6681508 414.36711 8.3125406 389.46094 17.978516 L 702.54102 209.6582 z "
       id="path34"
       transform="matrix(0.26458333,0,0,0.26458333,0,87)" />
    <path
       style="fill:#00ffff;stroke:#000000;stroke-width:1.07947671px;stroke-linecap:butt;stroke-linejoin:miter;stroke-opacity:1"
       d="M 702.54102 209.6582 L 389.46094 17.978516 C 350.94205 32.927527 323.55911 57.582106 304.57812 87.832031 L 679.31836 328.47266 C 692.40785 292.71353 701.57197 251.03362 702.54102 209.6582 z "
       id="path12"
       transform="matrix(0.26458333,0,0,0.26458333,0,87)" />
  </g>
</svg>
